<svg height="512" viewBox="0 0 64 64" width="512" xmlns="http://www.w3.org/2000/svg"><g id="Ai-bug-chip-processor-technology"><path d="m25 10.6-2.82-4.031a1 1 0 0 1 -.18-.569v-4h2v3.685l2.64 3.772z" fill="#34314c"/><path d="m39 10.6-1.64-1.143 2.64-3.772v-3.685h2v4a1 1 0 0 1 -.181.573z" fill="#34314c"/><path d="m14 25h-8a1 1 0 0 1 -1-1v-8h2v7h7z" fill="#34314c"/><path d="m7 41h-2v-9a1 1 0 0 1 1-1h8v2h-7z" fill="#34314c"/><path d="m7 55h-2v-10a1 1 0 0 1 1-1h9v2h-8z" fill="#34314c"/><path d="m58 25h-8v-2h7v-7h2v8a1 1 0 0 1 -1 1z" fill="#34314c"/><path d="m59 41h-2v-8h-7v-2h8a1 1 0 0 1 1 1z" fill="#34314c"/><path d="m59 55h-2v-9h-8v-2h9a1 1 0 0 1 1 1z" fill="#34314c"/><path d="m29 8h6a9 9 0 0 1 9 9 0 0 0 0 1 0 0h-24a0 0 0 0 1 0 0 9 9 0 0 1 9-9z" fill="#ef8746"/><path d="m18 17a4 4 0 0 0 -4 4v22a18 18 0 0 0 18 18v-44z" fill="#f3ac3c"/><path d="m46 17h-14v44a18 18 0 0 0 18-18v-22a4 4 0 0 0 -4-4z" fill="#f6cc4f"/><path d="m23 26h18v18h-18z" fill="#ec455a"/><path d="m37 30v10h-10v-7.04l3.01-2.96z" fill="#f09898"/><g fill="#34314c"><circle cx="26" cy="29" r="1"/><path d="m31 20h2v6h-2z"/><path d="m36 21h2v5h-2z"/><path d="m36 44h2v5h-2z"/><path d="m26 21h2v5h-2z"/><path d="m17 34h6v2h-6z"/><path d="m18 29h5v2h-5z"/><path d="m31 44h2v6h-2z"/><path d="m26 44h2v5h-2z"/><path d="m41 34h6v2h-6z"/><path d="m41 29h5v2h-5z"/><path d="m18 39h5v2h-5z"/><path d="m41 39h5v2h-5z"/></g></g></svg>