<svg id="Flat" height="512" viewBox="0 0 512 512" width="512" xmlns="http://www.w3.org/2000/svg"><path d="m24 352h464v128h-464z" fill="#3ea7ff"/><g fill="#2b7cd4"><path d="m400 376h88v16h-88z"/><path d="m368 376h16v16h-16z"/><path d="m400 440h88v16h-88z"/><path d="m368 440h16v16h-16z"/><path d="m24 376h328v16h-328z"/><path d="m24 440h328v16h-328z"/></g><circle cx="80" cy="416" fill="#eb352f" r="8"/><circle cx="112" cy="416" fill="#f2e368" r="8"/><path d="m152 408h104v16h-104z" fill="#a0cc00"/><path d="m24 192h464v128h-464z" fill="#3ea7ff"/><path d="m400 216h88v16h-88z" fill="#2b7cd4"/><path d="m368 216h16v16h-16z" fill="#2b7cd4"/><path d="m400 280h88v16h-88z" fill="#2b7cd4"/><path d="m368 280h16v16h-16z" fill="#2b7cd4"/><path d="m24 216h328v16h-328z" fill="#2b7cd4"/><path d="m24 280h328v16h-328z" fill="#2b7cd4"/><circle cx="80" cy="256" fill="#eb352f" r="8"/><circle cx="112" cy="256" fill="#f2e368" r="8"/><path d="m152 248h104v16h-104z" fill="#a0cc00"/><path d="m24 32h464v128h-464z" fill="#3ea7ff"/><path d="m400 56h88v16h-88z" fill="#2b7cd4"/><path d="m368 56h16v16h-16z" fill="#2b7cd4"/><path d="m400 120h88v16h-88z" fill="#2b7cd4"/><path d="m368 120h16v16h-16z" fill="#2b7cd4"/><path d="m24 56h328v16h-328z" fill="#2b7cd4"/><path d="m24 120h328v16h-328z" fill="#2b7cd4"/><circle cx="80" cy="96" fill="#eb352f" r="8"/><circle cx="112" cy="96" fill="#f2e368" r="8"/><path d="m152 88h104v16h-104z" fill="#a0cc00"/><path d="m72 320h32v32h-32z" fill="#2b7cd4"/><path d="m400 320h32v32h-32z" fill="#2b7cd4"/><path d="m72 160h32v32h-32z" fill="#2b7cd4"/><path d="m400 160h32v32h-32z" fill="#2b7cd4"/></svg>