<svg height="512" viewBox="0 0 128 128" width="512" xmlns="http://www.w3.org/2000/svg"><g id="Circle_Grid" data-name="Circle Grid"><circle cx="64" cy="64" fill="#69b0ee" r="64"/></g><g id="icon"><g fill="#eeefee"><path d="m62.192 85.715h3.616v8.447h-3.616z"/><path d="m62.192 76.775h3.616v48.968h-3.616z" transform="matrix(0 1 -1 0 165.259 37.259)"/><path d="m52.086 54.288v-12.443a11.914 11.914 0 0 1 23.829 0v12.443h6.6v-12.443a18.511 18.511 0 0 0 -37.021 0v12.443z"/></g><rect fill="#62667c" height="35.613" rx="3.048" width="48.968" x="39.516" y="52.911"/><path d="m62.346 70.15-.346 4.15h4l-.349-4.146a3.62 3.62 0 1 0 -3.307 0z" fill="#eeefee"/><path d="m71.736 97.757v6.908h-15.472v-6.908h4.282v-3.992h6.908v3.992z" fill="#62667c"/></g></svg>