<svg height="512" viewBox="0 0 64 64" width="512" xmlns="http://www.w3.org/2000/svg"><g id="cloud-gear-file-storage-process"><path d="m61 25a10 10 0 0 1 -10 10h-38a10 10 0 0 1 -1-19.95v-.05a12 12 0 0 1 23.03-4.72 8.983 8.983 0 0 1 14.76 4.8 9.706 9.706 0 0 1 1.21-.08 10 10 0 0 1 10 10z" fill="#006df0"/><path d="m30 42h4v6h-4z" fill="#e8e5fb"/><path d="m35 48v10a3 3 0 0 1 -6 0v-10z" fill="#8b858c"/><path d="m46 27.38v3.24a1.383 1.383 0 0 1 -1.38 1.38 1.341 1.341 0 0 0 -1.28.89 10.98 10.98 0 0 1 -.57 1.37 1.283 1.283 0 0 0 -.13.57 1.492 1.492 0 0 0 .02.21 1.358 1.358 0 0 0 .39.77 1.364 1.364 0 0 1 0 1.94l-2.3 2.3a1.373 1.373 0 0 1 -.97.41 1.356 1.356 0 0 1 -.97-.41 1.361 1.361 0 0 0 -1.55-.28 10.98 10.98 0 0 1 -1.37.57 1.341 1.341 0 0 0 -.89 1.28 1.354 1.354 0 0 1 -1.02 1.32 1.133 1.133 0 0 1 -.36.06h-3.24a1.133 1.133 0 0 1 -.36-.06 1.354 1.354 0 0 1 -1.02-1.32 1.341 1.341 0 0 0 -.89-1.28 10.98 10.98 0 0 1 -1.37-.57 1.283 1.283 0 0 0 -.57-.13 1.378 1.378 0 0 0 -.98.41 1.364 1.364 0 0 1 -1.94 0l-2.3-2.3a1.373 1.373 0 0 1 -.41-.97 1.356 1.356 0 0 1 .41-.97 1.358 1.358 0 0 0 .39-.77 1.324 1.324 0 0 0 -.11-.78 10.98 10.98 0 0 1 -.57-1.37 1.341 1.341 0 0 0 -1.28-.89 1.383 1.383 0 0 1 -1.38-1.38v-3.24a1.383 1.383 0 0 1 1.38-1.38 1.341 1.341 0 0 0 1.28-.89 10.98 10.98 0 0 1 .57-1.37 1.283 1.283 0 0 0 .13-.57 1.378 1.378 0 0 0 -.41-.98 1.364 1.364 0 0 1 0-1.94l2.3-2.3a1.373 1.373 0 0 1 .97-.41 1.356 1.356 0 0 1 .97.41 1.361 1.361 0 0 0 1.55.28 10.98 10.98 0 0 1 1.37-.57 1.341 1.341 0 0 0 .89-1.28 1.383 1.383 0 0 1 1.38-1.38h3.24a1.383 1.383 0 0 1 1.38 1.38 1.341 1.341 0 0 0 .89 1.28 10.98 10.98 0 0 1 1.37.57 1.283 1.283 0 0 0 .57.13 1.378 1.378 0 0 0 .98-.41 1.364 1.364 0 0 1 1.94 0l2.3 2.3a1.373 1.373 0 0 1 .41.97 1.356 1.356 0 0 1 -.41.97 1.361 1.361 0 0 0 -.28 1.55 10.98 10.98 0 0 1 .57 1.37 1.341 1.341 0 0 0 1.28.89 1.383 1.383 0 0 1 1.38 1.38z" fill="#ec455a"/><circle cx="32" cy="29" fill="#f6cc4f" r="8"/><path d="m14 48h-2v-19a1 1 0 0 1 1-1h5v2h-4z" fill="#5bcbfa"/><path d="m52 48h-2v-18h-4v-2h5a1 1 0 0 1 1 1z" fill="#5bcbfa"/><path d="m42 51h18v10h-18z" fill="#ee8647"/><path d="m60 51v-4h-9l-2-2h-7v6z" fill="#f6cc4f"/><path d="m4 51h18v10h-18z" fill="#ee8647"/><g fill="#f6cc4f"><path d="m22 51v-4h-9l-2-2h-7v6z"/><path d="m7 57h4v2h-4z"/><path d="m44 57h4v2h-4z"/></g></g></svg>