<svg id="Layer_1" enable-background="new 0 0 512 512" height="512" viewBox="0 0 512 512" width="512" xmlns="http://www.w3.org/2000/svg"><g><g><path d="m257.702 511.833c-.536.114-1.102.166-1.659.166-.587.01-1.185-.052-1.762-.166-209.161-44.01-274.094-179.856-249.266-450.896.433-4.71 5.007-7.885 9.519-6.588 32.637 9.39 151.027 35.326 236.08-52.049 2.946-3.03 7.768-3.081 10.704-.062 71.578 73.588 166.769 66.886 214.611 57.32 9.014-1.805 16.339-3.714 21.521-5.208 4.512-1.297 9.086 1.868 9.519 6.578 24.849 271.163-39.899 406.958-249.267 450.905z" fill="#6cf4cd"/><path d="m257.702 511.833c-.536.114-1.102.166-1.659.166 186.508-51.096 243.88-193.312 219.887-452.441 9.014-1.805 16.339-3.714 21.521-5.208 4.512-1.297 9.086 1.868 9.519 6.578 24.848 271.163-39.9 406.958-249.268 450.905z" fill="#36ddbd"/><path d="m459.23 114.73c-10.24 1.235-21.356 2.096-33.203 2.376-2.524.062-5.079.093-7.675.093-61.802-.031-117.061-17.554-162.359-51.116-45.299 33.562-100.558 51.085-162.36 51.117-14.722.01-28.464-.975-40.878-2.469-2.215 43.014-1.545 80.829 1.978 114.558 4.914 46.987 15.257 84.979 31.617 116.145 15.628 29.786 36.922 53.326 65.088 71.949 27.743 18.343 62.028 32.037 104.555 41.737 42.527-9.7 76.812-23.395 104.555-41.737 28.166-18.623 49.46-42.163 65.088-71.949 16.36-31.166 26.703-69.158 31.617-116.145 3.522-33.729 4.192-71.545 1.977-114.559z" fill="#edf8f9"/><path d="m459.23 114.73c-10.24 1.235-21.356 2.096-33.203 2.376 1.741 42.028 1.154 79.076-1.741 112.182-4.111 46.987-12.754 84.979-26.435 116.145-13.073 29.786-30.875 53.326-54.436 71.949-23.2 18.343-51.86 32.037-87.423 41.737 42.527-9.7 76.812-23.395 104.555-41.737 28.166-18.623 49.46-42.163 65.088-71.949 16.36-31.166 26.703-69.158 31.617-116.145 3.523-33.728 4.193-71.544 1.978-114.558z" fill="#daeeef"/></g><path d="m255.992 155.711c-26.191 0-47.5 21.309-47.5 47.5v43.696h15v-43.696c0-17.92 14.58-32.5 32.5-32.5s32.5 14.58 32.5 32.5v43.696h15v-43.696c0-26.191-21.308-47.5-47.5-47.5z" fill="#96c9d6"/><path d="m255.992 373.693c-5.53 0-10.69-.29-15.5-.85-80.83-9.29-64.48-92.94-54.34-129.31.99-3.56 4.23-6.03 7.92-6.03h123.84c3.69 0 6.93 2.46 7.92 6.01 10.74 38.54 28.48 130.18-69.84 130.18z" fill="#66f1ff"/><path d="m255.992 373.693c-5.53 0-10.69-.29-15.5-.85 85.7-9.85 62.16-103.28 52.6-135.34h24.82c3.69 0 6.93 2.46 7.92 6.01 10.74 38.54 28.48 130.18-69.84 130.18z" fill="#66d4ff"/><path d="m270.993 294.598c0-8.284-6.716-15-15-15s-15 6.716-15 15c0 5.552 3.016 10.399 7.5 12.993v11.223c0 4.142 3.358 7.5 7.5 7.5s7.5-3.358 7.5-7.5v-11.223c4.483-2.593 7.5-7.441 7.5-12.993z" fill="#fff"/></g><g fill="#d8e9ea"><circle cx="97.975" cy="154.992" r="7.5"/><circle cx="255.992" cy="116.583" r="7.5"/><circle cx="255.992" cy="415.603" r="7.5"/><circle cx="414.01" cy="154.993" r="7.5"/></g></svg>