<svg id="Capa_1" enable-background="new 0 0 497.006 497.006" height="512" viewBox="0 0 497.006 497.006" width="512" xmlns="http://www.w3.org/2000/svg"><path d="m492.584 237.863-233.47-233.47c-2.77-2.77-6.35-4.23-9.98-4.37l202.87 263.45h29.97c13.36 0 20.06-16.16 10.61-25.61z" fill="#6241ea"/><path d="m462.584 237.863c2.84 3.24 4.14 7.06 4.14 10.74 0 7.72-5.69 14.85-14.72 14.87v226.03c0 4.142-3.358 7.5-7.5 7.5h-120.667c-4.142 0-7.5-3.358-7.5-7.5v-197.5h-135.666v197.5c0 4.142-3.358 7.5-7.5 7.5h-120.667c-4.142 0-7.5-3.358-7.5-7.5v-226.03h-29.972c-13.365 0-20.059-16.159-10.608-25.61l233.47-233.47c2.93-2.93 6.77-4.39 10.61-4.39.21 0 .42.01.63.02 2.96.16 5.87 1.43 8.21 3.84z" fill="#725fee"/></svg>