<svg id="Capa_1" enable-background="new 0 0 511 511" height="512" viewBox="0 0 511 511" width="512" xmlns="http://www.w3.org/2000/svg"><g><g id="Filled_15_"><path d="m-220.5 235.5h496v40h-496z" fill="#9a999d" transform="matrix(0 -1 1 0 -228 283)"/><path d="m235.5 235.5h496v40h-496z" fill="#9a999d" transform="matrix(0 -1 1 0 228 739)"/><g fill="#e4e8ed"><path d="m47.5 458.5h416v30h-416z"/><path d="m47.5 268.5h416v30h-416z"/><path d="m47.5 78.5h416v30h-416z"/></g><path d="m90.5 338.5h120v120h-120z" fill="#decba0"/><path d="m90.5 428.5h120v30h-120z" fill="#d4b981"/><path d="m105.5 208.5h100v60h-100z" fill="#e46a4a"/><path d="m105.5 148.5h100v60h-100z" fill="#e46a4a"/><path d="m105.5 178.5h100v30h-100z" fill="#db380e"/><path d="m115.5 28.5h60v50h-60z" fill="#faef93"/><path d="m225.5 28.5h60v50h-60z" fill="#faef93"/><path d="m335.5 28.5h60v50h-60z" fill="#faef93"/><path d="m205.5 208.5h100v60h-100z" fill="#e46a4a"/><path d="m305.5 208.5h100v60h-100z" fill="#e46a4a"/><path d="m105.5 238.5h100v30h-100z" fill="#db380e"/><path d="m205.5 238.5h100v30h-100z" fill="#db380e"/><path d="m305.5 238.5h100v30h-100z" fill="#db380e"/><path d="m260.5 378.5h160v80h-160z" fill="#decba0"/><path d="m260.5 428.5h160v30h-160z" fill="#d4b981"/><path d="m130.5 338.5h40v40h-40z" fill="#faef93"/><path d="m320.5 378.5h40v40h-40z" fill="#faef93"/></g><g id="Outline_15_"><path d="m456 0v71h-53v-50h-75v50h-35v-50h-75v50h-35v-50h-75v50h-53v-71h-55v511h55v-15h153.5v-15h-153.5v-15h401v15h-232.5v15h232.5v15h55v-511zm-416 496h-25v-33h25zm0-48h-25v-29.444h25zm0-44.444h-25v-29.444h25zm0-44.445h-25v-29.445h25zm0-44.444h-25v-29.444h25zm0-44.445h-25v-29.444h25zm0-44.444h-25v-29.444h25zm0-44.445h-25v-29.445h25zm0-44.444h-25v-29.444h25zm0-44.445h-25v-29.444h25zm0-44.444h-25v-33h25zm303-12h45v35h-45zm-110 0h45v35h-45zm-110 0h45v35h-45zm290 415h-145v-65h45v40h55v-40h45zm-85-40v-25h25v25zm128-120h-332.5v15h332.5v145h-28v-80h-60-55-60v80h-35v-57.5h-15v27.5h-56.5v15h56.5v15h-105v-105h25v40h55v-40h25v32.5h15v-47.5h-40-55-40v120h-28v-145h53.5v-15h-53.5v-15h401zm-318 80v-25h25v25zm60-155v45h-85v-45zm-85-15v-45h85v45zm285 45v15h-85v-45h85v15h-32.5v15zm58-145h-53.5v15h53.5v145h-43v-60h-100-15-27.5v15h27.5v45h-85v-45h42.5v-15h-42.5v-60h-115v60 15 45h-43v-145h332.5v-15h-332.5v-15h401zm40 395h-25v-33h25zm0-48h-25v-29.444h25zm0-44.444h-25v-29.444h25zm0-44.445h-25v-29.445h25zm0-44.444h-25v-29.444h25zm0-44.445h-25v-29.444h25zm0-44.444h-25v-29.444h25zm0-44.445h-25v-29.445h25zm0-44.444h-25v-29.444h25zm0-44.445h-25v-29.444h25zm0-44.444h-25v-33h25z"/></g><g fill="#fff"><path d="m116.5 421h15v15h-15z"/><path d="m178 186h-15v-15h15zm-30 0h-15v-15h15z"/><path d="m335.5 231h15v15h-15z"/></g></g></svg>