<?xml version="1.0" encoding="iso-8859-1"?>
<!-- Generator: Adobe Illustrator 19.0.0, SVG Export Plug-In . SVG Version: 6.00 Build 0)  -->
<svg version="1.1" id="Capa_1" xmlns="http://www.w3.org/2000/svg" xmlns:xlink="http://www.w3.org/1999/xlink" x="0px" y="0px"
	 viewBox="0 0 512 512" style="enable-background:new 0 0 512 512;" xml:space="preserve">
<path style="fill:#B5EFFF;" d="M512,67.546v287.508c0,18.917-15.394,34.311-34.321,34.311H34.311
	C15.394,389.365,0,373.971,0,355.054V67.546c0-18.917,15.394-34.311,34.311-34.311h443.368C496.606,33.235,512,48.629,512,67.546z"
	/>
<path style="fill:#80DBFF;" d="M512,67.546v287.508c0,18.917-15.394,34.311-34.321,34.311H256.14V33.235h221.539
	C496.606,33.235,512,48.629,512,67.546z"/>
<rect x="210.029" y="359.333" style="fill:#B5EFFF;" width="89.941" height="119.427"/>
<rect x="256.14" y="359.333" style="fill:#80DBFF;" width="43.829" height="119.427"/>
<path style="fill:#5A6384;" d="M361.855,463.752c0,8.297-6.726,15.013-15.013,15.013H165.148c-8.287,0-15.013-6.716-15.013-15.013
	c0-8.287,6.726-15.013,15.013-15.013h181.693C355.129,448.738,361.855,455.464,361.855,463.752z"/>
<path style="fill:#445175;" d="M361.855,463.752c0,8.297-6.726,15.013-15.013,15.013H256.14v-30.027h90.701
	C355.129,448.738,361.855,455.464,361.855,463.752z"/>
<path style="fill:#5A6384;" d="M512,329.521v25.533c0,18.917-15.394,34.311-34.321,34.311H34.311
	C15.394,389.365,0,373.971,0,355.054v-25.533H512z"/>
<path style="fill:#445175;" d="M512,329.521v25.533c0,18.917-15.394,34.311-34.321,34.311H256.14v-59.844H512z"/>
<path style="fill:#FF475A;" d="M52.38,92.324c0.1,0.48,0.22,0.961,0.36,1.432c0.14,0.46,0.31,0.931,0.5,1.381
	c0.18,0.45,0.39,0.9,0.621,1.331c0.23,0.43,0.49,0.851,0.761,1.261s0.561,0.811,0.871,1.181c0.31,0.38,0.641,0.751,0.991,1.102
	c0.35,0.34,0.711,0.681,1.101,0.99c0.37,0.311,0.771,0.602,1.181,0.871c0.41,0.271,0.831,0.53,1.261,0.762
	c0.43,0.229,0.881,0.439,1.331,0.62c0.45,0.19,0.921,0.36,1.381,0.5c0.47,0.141,0.951,0.261,1.431,0.36
	c0.48,0.1,0.971,0.17,1.451,0.22c0.49,0.051,0.991,0.07,1.481,0.07c0.49,0,0.981-0.02,1.471-0.07s0.981-0.12,1.461-0.22
	c0.47-0.1,0.951-0.22,1.421-0.36c0.47-0.14,0.931-0.31,1.381-0.5c0.45-0.18,0.901-0.39,1.331-0.62c0.43-0.23,0.861-0.49,1.261-0.762
	c0.41-0.27,0.811-0.561,1.191-0.871c0.38-0.31,0.751-0.65,1.091-0.99c0.35-0.351,0.681-0.722,0.991-1.102
	c0.31-0.37,0.611-0.771,0.881-1.181c0.27-0.41,0.52-0.831,0.751-1.261c0.23-0.431,0.44-0.881,0.631-1.331
	c0.18-0.45,0.35-0.921,0.49-1.381c0.15-0.471,0.27-0.951,0.36-1.432c0.1-0.479,0.17-0.971,0.22-1.45
	c0.05-0.49,0.08-0.991,0.08-1.481c0-0.49-0.03-0.98-0.08-1.471c-0.05-0.49-0.12-0.981-0.22-1.461c-0.09-0.48-0.21-0.961-0.36-1.421
	c-0.14-0.471-0.31-0.932-0.49-1.392c-0.19-0.45-0.4-0.891-0.631-1.32c-0.23-0.431-0.48-0.861-0.751-1.262
	c-0.27-0.409-0.571-0.811-0.881-1.19c-0.31-0.38-0.641-0.751-0.991-1.091c-0.34-0.351-0.711-0.682-1.091-1.001
	c-0.38-0.301-0.781-0.602-1.191-0.871c-0.4-0.271-0.831-0.521-1.261-0.751c-0.43-0.23-0.881-0.44-1.331-0.631
	c-0.45-0.19-0.911-0.351-1.381-0.49c-0.47-0.15-0.941-0.271-1.421-0.36c-0.48-0.1-0.971-0.17-1.461-0.22
	c-0.981-0.1-1.972-0.1-2.953,0c-0.48,0.05-0.971,0.12-1.451,0.22c-0.48,0.09-0.961,0.21-1.431,0.36c-0.46,0.14-0.931,0.3-1.381,0.49
	c-0.45,0.189-0.901,0.399-1.331,0.631c-0.43,0.229-0.851,0.479-1.261,0.751c-0.41,0.27-0.811,0.57-1.181,0.871
	c-0.39,0.319-0.751,0.65-1.101,1.001c-0.35,0.34-0.681,0.711-0.991,1.091c-0.31,0.38-0.601,0.781-0.871,1.19
	c-0.27,0.4-0.53,0.831-0.761,1.262c-0.23,0.43-0.44,0.87-0.621,1.32c-0.19,0.46-0.36,0.921-0.5,1.392
	c-0.14,0.46-0.26,0.94-0.36,1.421c-0.1,0.479-0.17,0.971-0.22,1.461c-0.05,0.49-0.07,0.98-0.07,1.471s0.02,0.991,0.07,1.481
	C52.211,91.353,52.28,91.845,52.38,92.324z"/>
<path style="fill:#FFB13B;" d="M94.418,92.324c0.1,0.48,0.22,0.961,0.36,1.432c0.14,0.46,0.31,0.931,0.5,1.381
	c0.18,0.45,0.39,0.9,0.621,1.331c0.23,0.43,0.49,0.851,0.761,1.261s0.561,0.811,0.871,1.181c0.31,0.38,0.641,0.751,0.991,1.102
	c0.35,0.34,0.721,0.681,1.101,0.99c0.37,0.311,0.771,0.602,1.181,0.871c0.41,0.271,0.831,0.53,1.261,0.762
	c0.43,0.229,0.881,0.439,1.331,0.62c0.45,0.19,0.921,0.36,1.381,0.5c0.47,0.141,0.951,0.261,1.431,0.36
	c0.48,0.099,0.971,0.17,1.451,0.22c0.49,0.051,0.991,0.07,1.481,0.07c0.49,0,0.981-0.02,1.471-0.07s0.981-0.12,1.461-0.22
	s0.951-0.22,1.421-0.36c0.47-0.14,0.931-0.31,1.381-0.5c0.45-0.18,0.901-0.39,1.331-0.62c0.43-0.23,0.861-0.49,1.261-0.762
	c0.41-0.27,0.811-0.561,1.191-0.871c0.38-0.31,0.751-0.65,1.091-0.99c0.35-0.351,0.681-0.722,0.991-1.102
	c0.31-0.37,0.611-0.771,0.881-1.181c0.27-0.41,0.52-0.831,0.751-1.261c0.23-0.431,0.44-0.881,0.631-1.331
	c0.18-0.45,0.35-0.921,0.49-1.381c0.15-0.471,0.27-0.951,0.36-1.432c0.1-0.479,0.17-0.971,0.22-1.45
	c0.05-0.49,0.08-0.991,0.08-1.481c0-0.49-0.03-0.98-0.08-1.471c-0.05-0.49-0.12-0.981-0.22-1.461c-0.09-0.48-0.21-0.961-0.36-1.421
	c-0.14-0.471-0.31-0.932-0.49-1.392c-0.19-0.45-0.4-0.891-0.631-1.32c-0.23-0.431-0.48-0.861-0.751-1.262
	c-0.27-0.409-0.571-0.811-0.881-1.19c-0.31-0.38-0.641-0.751-0.991-1.091c-0.34-0.351-0.711-0.682-1.091-1.001
	c-0.38-0.301-0.781-0.602-1.191-0.871c-0.4-0.271-0.831-0.521-1.261-0.751c-0.43-0.23-0.881-0.44-1.331-0.631
	c-0.45-0.19-0.911-0.351-1.381-0.49c-0.47-0.15-0.941-0.271-1.421-0.36c-0.48-0.1-0.971-0.17-1.461-0.22
	c-0.981-0.1-1.972-0.1-2.953,0c-0.48,0.05-0.971,0.12-1.451,0.22c-0.48,0.09-0.961,0.21-1.431,0.36c-0.46,0.14-0.931,0.3-1.381,0.49
	c-0.45,0.189-0.901,0.399-1.331,0.631c-0.43,0.229-0.851,0.479-1.261,0.751c-0.41,0.27-0.811,0.57-1.181,0.871
	c-0.38,0.319-0.751,0.65-1.101,1.001c-0.35,0.34-0.681,0.711-0.991,1.091c-0.31,0.38-0.601,0.781-0.871,1.19
	c-0.27,0.4-0.53,0.831-0.761,1.262c-0.23,0.43-0.44,0.87-0.621,1.32c-0.19,0.46-0.36,0.921-0.5,1.392
	c-0.14,0.46-0.26,0.94-0.36,1.421c-0.09,0.479-0.17,0.971-0.22,1.461s-0.07,0.98-0.07,1.471s0.02,0.991,0.07,1.481
	C94.249,91.353,94.329,91.845,94.418,92.324z"/>
<path style="fill:#5A6384;" d="M165.893,86.46c-0.09-0.48-0.21-0.961-0.36-1.421c-0.14-0.471-0.31-0.932-0.49-1.392
	c-0.19-0.45-0.4-0.891-0.631-1.32c-0.23-0.431-0.48-0.861-0.751-1.262c-0.27-0.409-0.571-0.811-0.881-1.19
	c-0.31-0.38-0.641-0.751-0.991-1.091c-0.34-0.351-0.711-0.682-1.091-1.001c-0.38-0.301-0.781-0.602-1.191-0.871
	c-0.4-0.271-0.831-0.521-1.261-0.751c-0.43-0.23-0.881-0.44-1.331-0.631c-0.45-0.19-0.911-0.351-1.381-0.49
	c-0.47-0.15-0.941-0.271-1.421-0.36c-0.48-0.1-0.971-0.17-1.461-0.22c-0.981-0.1-1.972-0.1-2.953,0
	c-0.48,0.05-0.971,0.12-1.451,0.22c-0.48,0.09-0.961,0.21-1.431,0.36c-0.46,0.14-0.931,0.3-1.381,0.49
	c-0.45,0.189-0.901,0.399-1.331,0.631c-0.43,0.229-0.851,0.479-1.261,0.751c-0.41,0.27-0.811,0.57-1.181,0.871
	c-0.38,0.319-0.751,0.65-1.101,1.001c-0.35,0.34-0.681,0.711-0.991,1.091c-0.31,0.38-0.601,0.781-0.871,1.19
	c-0.27,0.4-0.53,0.831-0.761,1.262c-0.23,0.43-0.44,0.87-0.621,1.32c-0.19,0.46-0.36,0.921-0.5,1.392
	c-0.14,0.46-0.26,0.94-0.36,1.421c-0.1,0.479-0.17,0.971-0.22,1.461s-0.07,0.98-0.07,1.471s0.02,0.991,0.07,1.481
	c0.05,0.479,0.12,0.971,0.22,1.45c0.1,0.48,0.22,0.961,0.36,1.432c0.14,0.46,0.31,0.931,0.5,1.381c0.18,0.45,0.39,0.9,0.621,1.331
	c0.23,0.43,0.49,0.851,0.761,1.261s0.561,0.811,0.871,1.181c0.31,0.38,0.641,0.751,0.991,1.102c0.35,0.34,0.721,0.681,1.101,0.99
	c0.37,0.311,0.771,0.602,1.181,0.871c0.41,0.271,0.831,0.53,1.261,0.762c0.43,0.229,0.881,0.439,1.331,0.62
	c0.45,0.19,0.921,0.36,1.381,0.5c0.47,0.141,0.951,0.261,1.431,0.36c0.48,0.099,0.971,0.17,1.451,0.22
	c0.49,0.051,0.991,0.07,1.481,0.07c0.49,0,0.981-0.02,1.471-0.07c0.49-0.05,0.981-0.12,1.461-0.22c0.48-0.1,0.951-0.22,1.421-0.36
	c0.47-0.14,0.931-0.31,1.381-0.5c0.45-0.18,0.901-0.39,1.331-0.62c0.43-0.23,0.861-0.49,1.261-0.762
	c0.41-0.27,0.811-0.561,1.191-0.871c0.38-0.31,0.751-0.65,1.091-0.99c0.35-0.351,0.681-0.722,0.991-1.102
	c0.31-0.37,0.611-0.771,0.881-1.181s0.52-0.831,0.751-1.261c0.23-0.431,0.44-0.881,0.631-1.331c0.18-0.45,0.35-0.921,0.49-1.381
	c0.15-0.471,0.27-0.951,0.36-1.432c0.1-0.479,0.18-0.971,0.22-1.45c0.05-0.49,0.08-0.991,0.08-1.481c0-0.49-0.03-0.98-0.08-1.471
	C166.072,87.431,165.993,86.939,165.893,86.46z"/>
<path style="fill:#FF7045;" d="M146.834,126.835h-75.39c-10.674,0-19.356,8.684-19.356,19.356v118.705
	c0,10.674,8.684,19.357,19.356,19.357h75.39c10.674,0,19.356-8.684,19.356-19.357V146.191
	C166.19,135.518,157.507,126.835,146.834,126.835z"/>
<path style="fill:#FF475A;" d="M304.312,146.189v50.816c0,10.67-8.678,19.357-19.357,19.357h-75.388
	c-10.67,0-19.357-8.688-19.357-19.357v-50.816c0-10.67,8.688-19.357,19.357-19.357h75.388
	C295.635,126.832,304.312,135.52,304.312,146.189z"/>
<path style="fill:#549CFF;" d="M461.834,269.24c0,8.287-6.726,15.013-15.013,15.013H205.223c-8.287,0-15.013-6.726-15.013-15.013
	c0-8.297,6.726-15.013,15.013-15.013H446.82C455.108,254.226,461.834,260.942,461.834,269.24z"/>
<g>
	<path style="fill:#4A7AFF;" d="M349.579,156.862h97.239c8.291,0,15.013-6.722,15.013-15.013s-6.722-15.013-15.013-15.013h-97.239
		c-8.291,0-15.013,6.722-15.013,15.013S341.287,156.862,349.579,156.862z"/>
	<path style="fill:#4A7AFF;" d="M446.818,184.162h-97.239c-8.291,0-15.013,6.722-15.013,15.013c0,8.291,6.722,15.013,15.013,15.013
		h97.239c8.291,0,15.013-6.722,15.013-15.013C461.832,190.884,455.11,184.162,446.818,184.162z"/>
</g>
<path style="fill:#FF2B47;" d="M304.312,146.189v50.816c0,10.67-8.678,19.357-19.357,19.357h-28.816v-89.53h28.816
	C295.635,126.832,304.312,135.52,304.312,146.189z"/>
<path style="fill:#4A7AFF;" d="M461.834,269.24c0,8.287-6.726,15.013-15.013,15.013H256.139v-30.027H446.82
	C455.108,254.226,461.834,260.942,461.834,269.24z"/>
<g>
</g>
<g>
</g>
<g>
</g>
<g>
</g>
<g>
</g>
<g>
</g>
<g>
</g>
<g>
</g>
<g>
</g>
<g>
</g>
<g>
</g>
<g>
</g>
<g>
</g>
<g>
</g>
<g>
</g>
</svg>
