<svg id="Layer_3" enable-background="new 0 0 64 64" height="512" viewBox="0 0 64 64" width="512" xmlns="http://www.w3.org/2000/svg"><path d="m62 6v4h-40v-4c0-2.21 1.79-4 4-4h32c2.21 0 4 1.79 4 4z" fill="#969faa"/><path d="m62 54v4c0 2.21-1.79 4-4 4h-32c-2.21 0-4-1.79-4-4v-4z" fill="#969faa"/><path d="m22 10h40v44h-40z" fill="#69d6f4"/><path d="m40 39h16v5h-16z" fill="#fcd770"/><path d="m40 28h16v5h-16z" fill="#fcd770"/><g fill="#ffeaa7"><path d="m58 44v6h-20v-6h2 16z"/><path d="m58 33v6h-2-16-2v-6h2 16z"/><path d="m58 22v6h-2-16-2v-6z"/><path d="m5 26c0 .55.45 1 1 1s1-.45 1-1-.45-1-1-1-1 .45-1 1zm1 21c.55 0 1-.45 1-1s-.45-1-1-1-1 .45-1 1 .45 1 1 1zm21-20c.55 0 1-.45 1-1s-.45-1-1-1-1 .45-1 1 .45 1 1 1zm0 20c.55 0 1-.45 1-1s-.45-1-1-1-1 .45-1 1 .45 1 1 1zm3-23v24c0 1.1-.9 2-2 2h-6-18c-1.1 0-2-.9-2-2v-24c0-1.1.9-2 2-2h18 6c1.1 0 2 .9 2 2z"/></g><path d="m8 36c2.76 0 5-2.24 5-5 0-1.52-.7-2.87-1.77-3.79 1.42-.77 3.05-1.21 4.77-1.21 3.27 0 6.17 1.57 7.99 4h-5.99c-1.1 0-2 .9-2 2 0 .55.22 1.05.59 1.41.36.37.86.59 1.41.59h2c1.1 0 2 .9 2 2 0 .55-.22 1.05-.59 1.41-.36.37-.86.59-1.41.59h-7c-1.1 0-2 .9-2 2 0 .55.22 1.05.59 1.41.36.37.86.59 1.41.59h10.99c-1.82 2.43-4.72 4-7.99 4-5.52 0-10-4.48-10-10 0-.14 0-.28.01-.41h.01c.61.26 1.28.41 1.98.41z" fill="#69d6f4"/><path d="m13 31c0 2.76-2.24 5-5 5-.7 0-1.37-.15-1.98-.41h-.01c.15-3.62 2.22-6.75 5.22-8.38 1.07.92 1.77 2.27 1.77 3.79z" fill="#b4dd7f"/><path d="m23.99 30c1.26 1.67 2.01 3.75 2.01 6s-.75 4.33-2.01 6h-10.99c-.55 0-1.05-.22-1.41-.59-.37-.36-.59-.86-.59-1.41 0-1.1.9-2 2-2h7c.55 0 1.05-.22 1.41-.59.37-.36.59-.86.59-1.41 0-1.1-.9-2-2-2h-2c-.55 0-1.05-.22-1.41-.59-.37-.36-.59-.86-.59-1.41 0-1.1.9-2 2-2z" fill="#b4dd7f"/><path d="m16 25c-6.065 0-11 4.935-11 11s4.935 11 11 11 11-4.935 11-11-4.935-11-11-11zm-3 16c-.552 0-1-.448-1-1s.448-1 1-1h7c1.654 0 3-1.346 3-3s-1.346-3-3-3h-2c-.552 0-1-.448-1-1s.448-1 1-1h5.478c.96 1.431 1.522 3.151 1.522 5s-.562 3.569-1.522 5zm-1.936-12.517c.594.713.936 1.595.936 2.517 0 2.206-1.794 4-4 4-.313 0-.62-.047-.923-.119.334-2.672 1.838-4.982 3.987-6.398zm-4.018 8.433c.315.051.632.084.954.084 3.309 0 6-2.691 6-6 0-1.239-.398-2.433-1.111-3.434.971-.36 2.016-.566 3.111-.566 2.137 0 4.099.752 5.645 2h-3.645c-1.654 0-3 1.346-3 3s1.346 3 3 3h2c.552 0 1 .448 1 1s-.448 1-1 1h-7c-1.654 0-3 1.346-3 3s1.346 3 3 3h8.645c-1.545 1.248-3.508 2-5.645 2-4.654 0-8.493-3.55-8.954-8.084z"/><circle cx="6" cy="26" r="1"/><circle cx="27" cy="26" r="1"/><circle cx="6" cy="46" r="1"/><circle cx="27" cy="46" r="1"/><path d="m58 1h-32c-2.757 0-5 2.243-5 5v15h-17c-1.654 0-3 1.346-3 3v24c0 1.654 1.346 3 3 3h17v7c0 2.757 2.243 5 5 5h32c2.757 0 5-2.243 5-5v-52c0-2.757-2.243-5-5-5zm-32 2h32c1.654 0 3 1.346 3 3v3h-38v-3c0-1.654 1.346-3 3-3zm-23 45v-24c0-.552.448-1 1-1h24c.552 0 1 .448 1 1v24c0 .552-.448 1-1 1h-24c-.552 0-1-.448-1-1zm25 3c1.654 0 3-1.346 3-3v-24c0-1.654-1.346-3-3-3h-5v-10h38v42h-38v-2zm30 10h-32c-1.654 0-3-1.346-3-3v-3h38v3c0 1.654-1.346 3-3 3z"/><path d="m36 5h12v2h-12z"/><path d="m36 57h12v2h-12z"/><path d="m37 29h2v3h-2v8h2v3h-2v8h22v-8h-2v-3h2v-8h-2v-3h2v-8h-22zm20 20h-18v-4h18zm-2-6h-14v-3h14zm2-5h-18v-4h18zm-2-6h-14v-3h14zm-16-9h18v4h-18z"/><path d="m47 13h2v2h-2z"/><path d="m43 13h2v2h-2z"/><path d="m39 13h2v2h-2z"/><path d="m35 13h2v2h-2z"/><path d="m31 13h2v2h-2z"/><path d="m47 17h2v2h-2z"/><path d="m27 13h2v2h-2z"/><path d="m27 17h2v2h-2z"/></svg>