<svg id="Capa_1" enable-background="new 0 0 512 512" height="512" viewBox="0 0 512 512" width="512" xmlns="http://www.w3.org/2000/svg"><g><g><path clip-rule="evenodd" d="m94.99 153.41-47.088-46.941c-10.012-9.951-26.381-9.951-36.393 0-10.012 9.981-10.012 26.329 0 36.28l48.247 48.096z" fill="#fdb440" fill-rule="evenodd"/></g><g><path clip-rule="evenodd" d="m82.067 140.557-34.165-34.088c-10.012-9.951-26.381-9.951-36.393 0-3.446 3.465-5.704 7.671-6.774 12.113 9.21-3.554 20.113-1.659 27.54 5.745l32.472 32.37c5.466-5.715 11.259-11.105 17.32-16.14z" fill="#fe9737" fill-rule="evenodd"/></g><g><path clip-rule="evenodd" d="m268.548 124.002v-97.437h-27.451-78.401v97.437z" fill="#d7d0d6" fill-rule="evenodd"/></g><g><path clip-rule="evenodd" d="m289.701 25.707c0-14.157-11.616-25.707-25.787-25.707h-96.583c-14.171 0-25.787 11.55-25.787 25.707v19.161c0 3.613 2.941 6.545 6.566 6.545h14.587 105.852 14.587c3.624 0 6.566-2.932 6.566-6.545v-19.161z" fill="#fdb440" fill-rule="evenodd"/></g><g><path clip-rule="evenodd" d="m289.701 44.868v-19.161c0-14.157-11.616-25.707-25.787-25.707h-42.038c14.171 0 25.787 11.55 25.787 25.707v19.161c0 3.613-2.941 6.545-6.566 6.545h27.451 14.587c3.625 0 6.566-2.932 6.566-6.545z" fill="#fe9737" fill-rule="evenodd"/></g><g><path clip-rule="evenodd" d="m419.736 142.749c10.012-9.951 10.012-26.299 0-36.28-10.012-9.951-26.381-9.951-36.393 0l-34.165 34.088c13.22 10.958 25.044 23.545 35.205 37.434z" fill="#fdb440" fill-rule="evenodd"/></g><g><path clip-rule="evenodd" d="m419.736 142.749c10.012-9.951 10.012-26.299 0-36.28-5.08-5.035-11.765-7.522-18.449-7.463 8.734 10.04 8.318 25.381-1.248 34.947l-28.401 28.283c4.516 5.035 8.764 10.306 12.745 15.756z" fill="#fe9737" fill-rule="evenodd"/></g><g><path clip-rule="evenodd" d="m268.548 51.413h-27.451-78.401v21.027h54.159 27.481v21.916c8.229 1.125 16.31 2.725 24.213 4.798v-47.741z" fill="#baafb9" fill-rule="evenodd"/></g><g><path clip-rule="evenodd" d="m424.4 300.542c0-96.726-66.161-178.021-155.852-201.388-16.904-4.413-34.64-6.752-52.911-6.752-18.301 0-36.037 2.34-52.941 6.752-89.69 23.367-155.851 104.663-155.851 201.388 0 114.939 93.463 208.111 208.792 208.111 115.299 0 208.763-93.171 208.763-208.111z" fill="#6bd9e7" fill-rule="evenodd"/></g><g><path clip-rule="evenodd" d="m424.4 300.542c0-45.816-14.854-88.167-40.018-122.551-10.16-13.89-21.984-26.477-35.205-37.434-23.173-19.25-50.564-33.584-80.629-41.403v.326c-24.539-6.13-49.97-7.907-75.044-5.36 10.368 1.037 20.677 2.843 30.838 5.36v-.326c84.848 22.093 148.632 96.074 155.257 185.899.386 5.124.594 10.277.594 15.489 0 59.617-25.163 113.399-65.478 151.337-32.353 30.475-74.48 50.732-121.211 55.619 7.279.77 14.646 1.155 22.133 1.155 115.299 0 208.763-93.171 208.763-208.111z" fill="#00c7dd" fill-rule="evenodd"/></g><g><path clip-rule="evenodd" d="m214.003 462.63c88.68 0 160.991-72.085 160.991-160.489 0-88.374-72.311-160.489-160.991-160.489s-160.991 72.116-160.991 160.49c0 88.403 72.311 160.488 160.991 160.488z" fill="#fe636e" fill-rule="evenodd"/></g><g><path clip-rule="evenodd" d="m312.309 294.767c0-32.459-16.577-61.216-41.711-78.334-26.381-17.947-21.271 10.425-21.271 15.193v56.951c0 19.902-15.686 36.339-35.324 37.671-19.637-1.333-35.324-17.77-35.324-37.671v-56.951c0-4.768 5.11-33.14-21.271-15.193-25.134 17.118-41.711 45.875-41.711 78.334 0 40.663 26.025 75.55 62.269 88.937v74.899c11.586 2.636 23.648 4.028 36.037 4.028s24.45-1.392 36.037-4.028v-74.899c36.244-13.387 62.269-48.274 62.269-88.937z" fill="#c1eaf4" fill-rule="evenodd"/></g><g><path clip-rule="evenodd" d="m250.04 400.94v-17.236c6.833-2.517 13.309-5.834 19.34-9.773 25.787-17 42.929-46.171 42.929-79.163 0-32.459-16.577-61.216-41.711-78.334l-1.218-.829c-11.794-7.671-16.934-5.568-19.073-.74 17.974 17.296 29.204 41.492 29.204 68.205 0 36.664-21.153 68.62-51.901 84.376-14.884 7.641-10.368 21.945-10.368 40.959v54.197c11.26-.207 22.222-1.599 32.798-3.998z" fill="#99cfe0" fill-rule="evenodd"/></g><g><path clip-rule="evenodd" d="m368.963 258.458c-19.103-67.406-81.253-116.805-154.96-116.805-9.834 0-19.459.889-28.817 2.577 35.799 13.209 65.567 38.708 84.194 71.374.386.267.802.533 1.218.829 25.134 17.118 41.711 45.875 41.711 78.334 0 32.992-17.112 62.164-42.929 79.163-6.031 3.939-12.507 7.256-19.34 9.773v17.236 57.662c57.338-13.061 103.03-56.685 118.924-112.748 3.922-13.89 6.031-28.55 6.031-43.713-.001-15.132-2.11-29.792-6.032-43.682z" fill="#f93e55" fill-rule="evenodd"/></g><path d="m392.225 278.008h-11.244c-11.416-78.875-77.919-140.222-159.248-143.898v-9.605c0-4.267-3.46-7.726-7.73-7.726s-7.73 3.459-7.73 7.726v9.605c-82.436 3.725-149.646 66.702-159.69 147.126h-7.564c-4.27 0-7.73 3.459-7.73 7.726s3.46 7.726 7.73 7.726h6.36c-.058 1.811-.098 3.627-.098 5.453 0 91.256 73.264 165.772 164.23 168.155v6.283c0 4.267 3.46 7.726 7.73 7.726s7.73-3.459 7.73-7.726v-6.588c87.94-5.654 157.754-78.771 157.754-167.85 0-2.911-.075-5.805-.222-8.681h9.723c4.27 0 7.73-3.459 7.73-7.726s-3.461-7.726-7.731-7.726zm-24.96 24.133c0 80.557-62.885 146.743-142.294 152.367v-12.284c0-4.267-3.46-7.726-7.73-7.726s-7.73 3.459-7.73 7.726v12.608c-82.439-2.378-148.769-69.957-148.769-152.692 0-1.826.044-3.642.108-5.453h12.631c4.27 0 7.73-3.459 7.73-7.726s-3.46-7.726-7.73-7.726h-11.298c9.914-71.886 70.188-127.986 144.09-131.663v9.257c0 4.267 3.46 7.726 7.73 7.726s7.73-3.459 7.73-7.726v-9.257c72.792 3.622 132.365 58.103 143.612 128.435h-7.582c-4.27 0-7.73 3.459-7.73 7.726s3.46 7.726 7.73 7.726h9.249c.162 2.876.253 5.769.253 8.682z" fill="#e8eaea"/><g><path clip-rule="evenodd" d="m388.957 332.913c-7.843 2.014-15.241 5.094-22.014 9.122l-6.358-6.367c-3.03-3.021-7.992-3.021-11.022 0l-18.419 18.391c-3.03 3.021-3.03 7.967 0 10.988l6.358 6.338c-4.04 6.752-7.13 14.127-9.15 21.945h-8.972c-4.308 0-7.813 3.495-7.813 7.789v25.973c0 4.265 3.535 7.759 7.813 7.759h8.972c2.02 7.819 5.11 15.193 9.15 21.945l-6.358 6.367c-3.03 3.021-3.03 7.967 0 10.988l18.419 18.362c3.03 3.021 7.992 3.021 11.022 0l6.358-6.338c6.774 3.998 14.171 7.108 22.014 9.092v8.974c0 4.265 3.506 7.759 7.813 7.759h26.054c4.278 0 7.784-3.495 7.784-7.759v-8.974c7.843-1.984 15.241-5.094 22.044-9.092l6.358 6.338c3.03 3.021 7.992 3.021 11.022 0l18.419-18.362c3.03-3.021 3.03-7.967 0-10.988l-6.358-6.367c4.04-6.752 7.13-14.127 9.121-21.945h9.002c4.278 0 7.784-3.495 7.784-7.759v-25.973c0-4.294-3.506-7.789-7.784-7.789h-9.002c-1.99-7.819-5.08-15.193-9.121-21.945l6.358-6.338c3.03-3.021 3.03-7.967 0-10.988l-18.419-18.391c-3.03-3.021-7.992-3.021-11.022 0l-6.358 6.367c-6.803-4.028-14.201-7.108-22.044-9.122v-8.944c0-4.294-3.506-7.789-7.784-7.789h-26.054c-4.308 0-7.813 3.495-7.813 7.789z" fill="#737a93" fill-rule="evenodd"/></g><g><path clip-rule="evenodd" d="m360.051 414.09c0 27.395 22.281 49.577 49.732 49.577 27.481 0 49.762-22.182 49.762-49.577 0-27.365-22.281-49.577-49.762-49.577-27.451 0-49.732 22.212-49.732 49.577z" fill="#e8eaea" fill-rule="evenodd"/></g><g><path clip-rule="evenodd" d="m426.361 406.538c0 20.672-3.387 40.041-9.239 56.596 24.005-3.524 42.424-24.137 42.424-49.044 0-23.248-16.072-42.765-37.76-48.126 2.941 12.557 4.575 26.269 4.575 40.574z" fill="#d4d6d8" fill-rule="evenodd"/></g><g><path clip-rule="evenodd" d="m421.785 365.964c21.687 5.36 37.76 24.877 37.76 48.126 0 24.907-18.419 45.52-42.424 49.044-6.566 18.54-16.28 33.614-27.867 43.18.921 3.287 3.951 5.686 7.516 5.686h26.054c4.278 0 7.784-3.495 7.784-7.759v-8.974c10.428-2.636 14.854-7.226 19.34-7.582 2.614-.207 5.229 1.007 9.061 4.827 3.03 3.021 7.992 3.021 11.022 0l18.419-18.362c3.03-3.021 3.03-7.967 0-10.988l-6.358-6.367c4.04-6.752 7.13-14.127 9.121-21.945h9.002c4.278 0 7.784-3.495 7.784-7.759v-25.973c0-4.294-3.506-7.789-7.784-7.789h-9.002c-1.99-7.819-5.08-15.193-9.121-21.945l6.358-6.338c3.03-3.021 3.03-7.967 0-10.988l-18.419-18.391c-3.03-3.021-7.992-3.021-11.022 0l-6.358 6.367c-6.803-4.028-14.201-7.108-22.044-9.122v-8.944c0-4.265-3.476-7.759-7.724-7.789h-.059-24.213c10.34 12.41 18.451 29.676 23.174 49.785z" fill="#606b82" fill-rule="evenodd"/></g></g></svg>