<?xml version="1.0" encoding="iso-8859-1"?>
<!-- Generator: Adobe Illustrator 19.0.0, SVG Export Plug-In . SVG Version: 6.00 Build 0)  -->
<svg xmlns="http://www.w3.org/2000/svg" xmlns:xlink="http://www.w3.org/1999/xlink" version="1.1" id="Layer_1" x="0px" y="0px" viewBox="0 0 512 512" style="enable-background:new 0 0 512 512;" xml:space="preserve" width="512" height="512">
<g>
	<g>
		<g>
			<path style="fill:#78D2FA;" d="M31.011,394.203V90.384c0-13.693,11.1-24.793,24.793-24.793h400.392     c13.693,0,24.793,11.1,24.793,24.793v303.819"/>
		</g>
		<g>
			<polyline style="fill:#FFFFFF;" points="319.556,105.591 443.949,105.591 443.949,354.203 68.051,354.203 68.051,105.591      189.523,105.591    "/>
		</g>
		<g>
			<path style="fill:#628AFF;" d="M314,394.203H10v28.206c0,13.255,10.745,24,24,24h444c13.255,0,24-10.745,24-24v-28.206h-85"/>
		</g>
		<g>
			<g>
				<line style="fill:#628AFF;" x1="367" y1="394.203" x2="367" y2="394.203"/>
			</g>
			<g>
				<path d="M367,404.2c-0.65,0-1.31-0.061-1.95-0.19c-0.64-0.13-1.27-0.32-1.88-0.57c-0.6-0.25-1.18-0.56-1.72-0.92      c-0.55-0.37-1.06-0.79-1.52-1.25c-0.46-0.46-0.88-0.97-1.24-1.52c-0.36-0.54-0.67-1.12-0.92-1.72      c-0.25-0.61-0.45-1.24-0.57-1.87c-0.13-0.65-0.2-1.311-0.2-1.96c0-0.65,0.07-1.311,0.2-1.95c0.12-0.641,0.32-1.271,0.57-1.87      c0.25-0.61,0.56-1.19,0.92-1.73c0.36-0.55,0.78-1.06,1.24-1.52c0.46-0.46,0.97-0.88,1.52-1.24c0.54-0.359,1.12-0.67,1.72-0.92      c0.61-0.25,1.24-0.439,1.88-0.57c1.29-0.26,2.61-0.26,3.9,0c0.64,0.131,1.27,0.32,1.88,0.57c0.6,0.25,1.18,0.561,1.72,0.92      c0.55,0.36,1.06,0.78,1.52,1.24c0.46,0.46,0.88,0.97,1.24,1.52c0.36,0.54,0.67,1.12,0.92,1.73c0.25,0.6,0.45,1.229,0.57,1.87      c0.13,0.64,0.2,1.3,0.2,1.95c0,0.649-0.07,1.31-0.2,1.96c-0.12,0.63-0.32,1.26-0.57,1.87c-0.25,0.6-0.56,1.18-0.92,1.72      c-0.36,0.55-0.78,1.06-1.24,1.52C372.21,403.14,369.63,404.2,367,404.2z"/>
			</g>
		</g>
	</g>
	<g>
		<g>
			<g>
				<path style="fill:#FF8C8C;" d="M239.88,93.667l-125.562,233.57c-6.554,12.192,2.277,26.967,16.12,26.967h251.125      c13.842,0,22.674-14.774,16.12-26.967L272.119,93.667C265.213,80.819,246.787,80.819,239.88,93.667z"/>
			</g>
			<path d="M502,384.203h-11.011V90.384c0-19.185-15.608-34.793-34.792-34.793H55.804c-19.185,0-34.793,15.608-34.793,34.793     v293.819H10c-5.523,0-10,4.478-10,10v28.206c0,18.748,15.252,34,34,34h444c18.748,0,34-15.252,34-34v-28.206     C512,388.681,507.523,384.203,502,384.203z M388.688,340.161c-0.727,1.215-2.875,4.042-7.125,4.042H130.437     c-4.25,0-6.398-2.827-7.125-4.042c-0.727-1.216-2.199-4.446-0.186-8.189L248.688,98.402c2.121-3.945,5.82-4.371,7.312-4.371     c1.492,0,5.191,0.426,7.311,4.371l125.563,233.569C390.887,335.715,389.414,338.945,388.688,340.161z M492,422.409     c0,7.72-6.28,14-14,14H34c-7.72,0-14-6.28-14-14v-18.206h294c5.523,0,10-4.478,10-10c0-5.522-4.477-10-10-10H41.011V90.384     c0-8.157,6.636-14.793,14.792-14.793H246.72c-6.6,2.287-12.228,6.981-15.648,13.341L105.51,322.502     c-3.662,6.812-4.365,14.56-2.147,21.701H78.051V115.591h111.472c5.523,0,10-4.478,10-10c0-5.522-4.477-10-10-10H68.051     c-5.523,0-10,4.478-10,10v248.612c0,5.522,4.477,10,10,10h375.898c5.523,0,10-4.478,10-10V105.591c0-5.522-4.477-10-10-10     H319.556c-5.523,0-10,4.478-10,10c0,5.522,4.477,10,10,10h114.393v228.612h-25.312c2.218-7.141,1.515-14.89-2.147-21.702     L280.928,88.932c-3.42-6.36-9.047-11.053-15.648-13.341h190.916c8.157,0,14.792,6.636,14.792,14.793v293.819H417     c-5.523,0-10,4.478-10,10c0,5.522,4.477,10,10,10h75V422.409z"/>
		</g>
		<g>
			<g>
				<g>
					<rect x="238.507" y="233.92" style="fill:#FFFFFF;" width="34.985" height="84.892"/>
				</g>
				<g>
					<path d="M273.493,328.813h-34.985c-5.523,0-10-4.478-10-10V233.92c0-5.522,4.477-10,10-10h34.985c5.523,0,10,4.478,10,10       v84.893C283.493,324.335,279.016,328.813,273.493,328.813z M248.507,308.813h14.985V243.92h-14.985V308.813z"/>
				</g>
			</g>
			<g>
				<g>
					<rect x="238.507" y="169.586" style="fill:#FFFFFF;" width="34.985" height="30.893"/>
				</g>
				<g>
					<path d="M273.493,210.479h-34.985c-5.523,0-10-4.477-10-10v-30.893c0-5.522,4.477-10,10-10h34.985c5.523,0,10,4.478,10,10       v30.893C283.493,206.001,279.016,210.479,273.493,210.479z M248.507,190.479h14.985v-10.893h-14.985V190.479z"/>
				</g>
			</g>
		</g>
	</g>
</g>















</svg>
